PathFileType	4	(X/Y/Z)	D:\TRACE\spotREDO_2-26-24\spot_Both_Motion_3_4-platform.trc
DataRate	CameraRate	NumFrames	NumMarkers	Units	OrigDataRate	OrigDataStartFrame	OrigNumFrames
100.00	100.00	      55	5	mm	100.00	1751	      7000
Frame#	Time	Left_Front			Right_Front			Left_Aft			Right_Aft			Post			
		X1	Y1	Z1	X2	Y2	Z2	X3	Y3	Z3	X4	Y4	Z4	X5	Y5	Z5	

1751	17.500	-721.01935	-3.89137	-575.70569	693.41199	5.05780	-491.05991	-792.76337	4.08508	642.85321	776.62756	11.03414	648.18848	-26.68346	622.15656	-981.97778	
1752	17.510	-720.97449	-3.81310	-575.71655	693.46417	5.16678	-491.05750	-792.70709	4.10336	642.81439	776.73553	10.98183	648.13770	-26.65600	622.21246	-982.11200	
1753	17.520	-720.98669	-3.78195	-575.74567	693.47974	5.11342	-491.07196	-792.67566	4.03513	642.83582	776.56140	10.82738	648.10876	-26.64748	622.18237	-982.06354	
1754	17.530	-720.99323	-3.88481	-575.70605	693.48730	5.03724	-491.08359	-792.65851	3.90728	642.87482	776.53748	10.68077	648.08423	-26.62832	622.11829	-982.14417	
1755	17.540	-721.04138	-3.91704	-575.70880	693.70795	4.78972	-490.97272	-792.71063	3.95978	642.88525	776.42242	10.63529	648.07739	-26.64479	622.04437	-982.19586	
1756	17.550	-721.01965	-3.86904	-575.71832	693.65643	4.81308	-490.99438	-792.72467	3.96809	642.84253	776.59460	10.75990	648.04907	-26.66191	622.13177	-982.11774	
1757	17.560	-720.95825	-3.78709	-575.69696	693.44214	5.17581	-491.09872	-792.69763	4.08163	642.85706	776.76855	11.03146	648.07434	-26.63093	622.17206	-982.15448	
1758	17.570	-720.98126	-3.76237	-575.72467	693.43250	5.23937	-491.08942	-792.69568	4.08711	642.81592	776.82611	11.00019	648.07245	-26.49974	622.06970	-982.22736	
1759	17.580	-721.03064	-3.84232	-575.71527	693.45837	5.12128	-491.09070	-792.71362	3.95294	642.85590	776.54443	10.78925	648.04602	-26.57510	622.03558	-982.26215	
1760	17.590	-721.02740	-3.88736	-575.72064	693.46497	5.06740	-491.12610	-792.73444	3.96247	642.80042	776.51062	10.66057	648.03076	-26.66550	622.08856	-982.17792	
1761	17.600	-721.00568	-3.87595	-575.71942	693.44342	5.01808	-491.11438	-792.77039	3.96265	642.83008	776.41968	10.65758	648.03064	-26.58043	622.16528	-982.20459	
1762	17.610	-720.98969	-3.70442	-575.67957	693.51501	5.18402	-491.07523	-792.67218	3.89719	642.82172	776.64160	10.81592	648.05762	-26.56844	622.21515	-982.23376	
1763	17.620	-720.93732	-3.67402	-575.68988	693.57764	5.33569	-490.99844	-792.71179	4.00726	642.79486	776.76514	10.86757	648.10162	-26.51368	622.26166	-982.14648	
1764	17.630	-720.89984	-3.63808	-575.68823	693.63483	5.30921	-491.04623	-792.58112	3.89366	642.84900	776.73071	10.80257	648.09521	-26.49689	622.24280	-982.13477	
1765	17.640	-720.82446	-3.73862	-575.70422	693.64502	5.21287	-491.13031	-792.54590	3.86716	642.87109	776.63080	10.69163	648.07727	-26.46112	622.24683	-982.01788	
1766	17.650	-720.75104	-3.75912	-575.68079	693.69489	5.13907	-491.14172	-792.39886	3.77391	642.88947	776.73871	10.69216	648.06805	-26.37432	622.25934	-981.93982	
1767	17.660	-720.58563	-3.63609	-575.64026	694.01337	4.92421	-490.93677	-792.32562	3.90010	642.81891	776.95618	10.85924	648.06616	-26.23535	622.28864	-981.89502	
1768	17.670	-720.59558	-3.57457	-575.71411	693.93976	5.22615	-491.07574	-792.35901	3.80754	642.85632	777.20465	11.03619	648.06879	-26.10899	622.29114	-981.77081	
1769	17.680	-720.63800	-3.60047	-575.72644	693.92065	5.28821	-491.06833	-792.37488	3.84004	642.87091	777.21124	11.03471	648.09558	-26.08331	622.24902	-981.82489	
1770	17.690	-720.71228	-3.72920	-575.72357	694.16473	4.90139	-490.96524	-792.29932	3.93034	642.86023	777.17780	11.06843	648.09515	-26.30663	622.10541	-981.99554	
1771	17.700	-720.71661	-3.87297	-575.67554	694.03021	4.78675	-491.02960	-792.34418	3.99582	642.85632	777.09332	10.98559	648.01953	-26.24897	621.98181	-982.09363	
1772	17.710	-720.63696	-3.93168	-575.74915	694.09332	4.69602	-491.02731	-792.39459	4.01997	642.78534	777.18781	11.09927	648.05621	-26.09225	621.86066	-982.30237	
1773	17.720	-720.66840	-3.92357	-575.74573	694.17480	4.70780	-491.02396	-792.33948	4.14674	642.81671	777.35968	11.25028	648.05902	-26.07013	621.73425	-982.46832	
1774	17.730	-720.66187	-3.98549	-575.77612	694.27197	4.68643	-491.08875	-792.24078	4.26766	642.75122	777.43549	11.33887	648.07574	-26.01555	621.45526	-982.73077	
1775	17.740	-720.67188	-4.05864	-575.82922	694.29889	4.63009	-491.03000	-792.33649	4.20912	642.70251	777.39893	11.41850	648.17401	-26.01861	621.32721	-982.89136	
1776	17.750	-720.67200	-4.30426	-575.90186	694.27612	4.48597	-491.01480	-792.33600	4.28713	642.65009	777.37469	11.41394	648.12256	-26.07760	621.20245	-983.01996	
1777	17.760	-720.62848	-4.46593	-575.97186	694.22662	4.37593	-491.06860	-792.29913	4.39544	642.69763	777.35547	11.42047	648.10321	-26.10203	621.10254	-983.08063	
1778	17.770	-720.63867	-4.49871	-575.97150	694.27094	4.31099	-491.02753	-792.25891	4.48870	642.67126	777.29102	11.53089	648.00317	-26.14952	621.04352	-983.17920	
1779	17.780	-720.63672	-4.46700	-575.96716	694.34766	4.31924	-490.99924	-792.22784	4.55939	642.70471	777.33594	11.52462	648.05133	-26.12760	621.01062	-983.18652	
1780	17.790	-720.64471	-4.51195	-576.00000	694.39423	4.36085	-491.02219	-792.22882	4.56713	642.65155	777.32916	11.55055	648.08051	-26.16111	620.97980	-983.21002	
1781	17.800	-720.67761	-4.58364	-576.03705	694.35590	4.25612	-491.05496	-792.15851	4.62202	642.53802	777.29169	11.61302	647.94885	-26.20865	620.85809	-983.25726	
1782	17.810	-720.71075	-4.67827	-576.02515	694.29492	4.07338	-491.07916	-792.20428	4.61278	642.58032	777.25958	11.65564	647.90802	-26.34654	620.66663	-983.27155	
1783	17.820	-720.68896	-4.75783	-576.03680	694.26410	3.99567	-491.14752	-792.13733	4.66262	642.56000	777.29395	11.68731	647.90063	-26.29095	620.55511	-983.29999	
1784	17.830	-720.67902	-4.81014	-576.02576	694.32001	3.95182	-491.20340	-792.13770	4.71878	642.56305	777.29065	11.84598	647.92291	-26.23335	620.42566	-983.35645	
1785	17.840	-720.66089	-4.82509	-576.06262	694.33466	3.95636	-491.20538	-791.95355	4.96422	642.58148	777.33832	12.00079	647.88507	-26.20931	620.28558	-983.42651	
1786	17.850	-720.65857	-4.94964	-576.07196	694.33929	3.88141	-491.23834	-791.95215	5.01214	642.53796	777.26196	12.11503	647.79492	-26.22899	620.15070	-983.45599	
1787	17.860	-720.63934	-5.02314	-576.07953	694.18341	3.74573	-491.38077	-791.91870	5.01199	642.49585	777.26788	12.13068	647.76721	-26.24032	620.08154	-983.53589	
1788	17.870	-720.62805	-5.10070	-576.07678	694.17242	3.64860	-491.44217	-791.92474	5.05530	642.49695	777.20276	12.22400	647.73340	-26.18002	619.81854	-983.82739	
1789	17.880	-720.57477	-5.27993	-576.16852	694.24072	3.54748	-491.38083	-791.97137	5.14304	642.45203	777.19556	12.34136	647.74695	-26.11244	619.44556	-984.21002	
1790	17.890	-720.51788	-5.35057	-576.12708	694.24011	3.50856	-491.41245	-791.99744	5.32945	642.47858	777.16034	12.42031	647.71820	-26.04692	619.29187	-984.41370	
1791	17.900	-720.47192	-5.40985	-576.13507	694.21667	3.49714	-491.38248	-792.03979	5.49684	642.41797	777.18738	12.60332	647.68945	-25.86610	619.15558	-984.80957	
1792	17.910	-720.46881	-5.49459	-576.17804	694.21863	3.41490	-491.47040	-792.04419	5.63358	642.34052	777.13037	12.74475	647.67694	-25.79412	618.93567	-985.05328	
1793	17.920	-720.35028	-5.69726	-576.22577	694.33606	3.05826	-491.42413	-792.10925	5.69731	642.30341	777.02301	12.76903	647.62341	-25.79976	618.78229	-985.11566	
1794	17.930	-720.32703	-5.83209	-576.26727	694.43140	2.97765	-491.38031	-792.08691	5.82073	642.21515	776.96759	12.91094	647.62714	-25.93330	618.50677	-985.16461	
1795	17.940	-720.31665	-5.84850	-576.31519	694.38525	2.97876	-491.39590	-792.20184	5.99171	642.17700	776.96722	13.09336	647.59723	-25.95778	618.31213	-985.16705	
1796	17.950	-720.31982	-5.89849	-576.33356	694.45013	2.92243	-491.36459	-792.04785	6.13079	642.12524	777.04163	13.22605	647.56110	-26.01600	618.23181	-985.22723	
1797	17.960	-720.31305	-5.95331	-576.34729	694.49011	2.87847	-491.39471	-792.09406	6.29680	642.03259	777.09283	13.34175	647.49091	-26.08348	618.16547	-985.23523	
1798	17.970	-720.29510	-6.13137	-576.40076	694.47144	2.75147	-491.43613	-792.17920	6.36406	642.00201	777.04004	13.42509	647.48969	-26.10975	618.06775	-985.30347	
1799	17.980	-720.34155	-6.32373	-576.43329	694.39026	2.63969	-491.50427	-792.21185	6.50552	641.97693	777.05664	13.53549	647.44061	-26.13460	617.85864	-985.42188	
1800	17.990	-720.37622	-6.48897	-576.49780	694.30566	2.55501	-491.57053	-792.29993	6.54432	641.92291	777.13898	13.71561	647.38049	-26.07002	617.63245	-985.57104	
1801	18.000	-720.48804	-6.54792	-576.54236	694.26794	2.53932	-491.60376	-792.34918	6.76253	641.94934	777.24115	13.85172	647.30652	-26.25158	617.38953	-985.79791	
1802	18.010	-720.65277	-6.74577	-576.59082	694.06964	2.46032	-491.67844	-792.45911	6.84585	641.92383	777.23706	13.94563	647.32898	-26.00994	617.00549	-985.70007	
1803	18.020	-720.79950	-6.88286	-576.66888	693.87183	2.28613	-491.78403	-792.58881	6.97524	641.92596	777.11511	14.02648	647.30902	-26.25089	616.78430	-986.00275	
1804	18.030	-720.90350	-7.07135	-576.66174	693.68665	2.18805	-491.77939	-792.71649	7.03751	641.89063	777.07581	14.07474	647.26605	-26.43804	616.53015	-986.34857	
1805	18.040	-720.97852	-7.20466	-576.64801	693.61932	2.13288	-491.77982	-792.72986	7.12055	641.91125	776.91882	14.37289	647.20435	-26.58268	616.28760	-986.63959	
